<svg xmlns="http://www.w3.org/2000/svg" viewBox="0 0 328.34 327.99"><defs><style>.cls-1{fill:#054060;}.cls-2{fill:#00559b;}</style></defs><title>blue-light-off</title><g id="Layer_2" data-name="Layer 2"><g id="LuzesOff"><path class="cls-1" d="M153.94,0a173,173,0,0,1-12.62,48.09,174.38,174.38,0,0,1-37.53,55.59,174.38,174.38,0,0,1-55.65,37.48A173.25,173.25,0,0,1,0,153.77V313a15,15,0,0,0,16.58,14.93,347.06,347.06,0,0,0,99.71-25.59,349,349,0,0,0,111.31-75,348.77,348.77,0,0,0,75-111.19,346,346,0,0,0,25.61-99.58A15,15,0,0,0,313.34,0Z"/><path class="cls-2" d="M15,321a8,8,0,0,1-8-8V159.91a180.23,180.23,0,0,0,43.86-12.3,181.28,181.28,0,0,0,57.88-39,181.21,181.21,0,0,0,39-57.81A180.1,180.1,0,0,0,160.08,7H313.34a8,8,0,0,1,8,8.86,339.64,339.64,0,0,1-25.1,97.57,341.64,341.64,0,0,1-73.55,109,342,342,0,0,1-109.09,73.47,340.51,340.51,0,0,1-97.7,25.07A8.08,8.08,0,0,1,15,321Z"/></g></g></svg>