<svg xmlns="http://www.w3.org/2000/svg" viewBox="0 0 100 100"><defs><style>.cls-1{fill:#fe0000;}.cls-2{fill:#016dd9;}.cls-3{fill:#01d936;}.cls-4{fill:#ff0;}.cls-5{fill:#282828;}.cls-6{fill:#fff;}</style></defs><title>favicon</title><g id="Layer_2" data-name="Layer 2"><g id="Layer_1-2" data-name="Layer 1"><path d="M50,100A50,50,0,0,1,30.54,3.93,50,50,0,0,1,69.46,96.07,49.61,49.61,0,0,1,50,100Z"/><path class="cls-1" d="M65.9,34.12a22.21,22.21,0,0,1,6.43,13.29H92.77a1.92,1.92,0,0,0,1.91-2.13A44.18,44.18,0,0,0,91.4,32.52,44.83,44.83,0,0,0,54.72,5.37,1.92,1.92,0,0,0,52.6,7.28V27.7a22.25,22.25,0,0,1,13.3,6.42Z"/><path class="cls-2" d="M72.33,52.54A22.45,22.45,0,0,1,58.77,70.63a22.14,22.14,0,0,1-6.17,1.62V92.66a1.92,1.92,0,0,0,2.12,1.91,44.78,44.78,0,0,0,40-39.91,1.92,1.92,0,0,0-1.91-2.12Z"/><path class="cls-3" d="M27.73,47.41a22,22,0,0,1,1.62-6.16A22.36,22.36,0,0,1,47.47,27.7V7.28a1.92,1.92,0,0,0-2.13-1.91A44.93,44.93,0,0,0,8.67,32.52,44.2,44.2,0,0,0,5.38,45.28,1.93,1.93,0,0,0,7.3,47.41Z"/><path class="cls-4" d="M34.16,65.83a22.38,22.38,0,0,1-4.81-7.13,22.07,22.07,0,0,1-1.62-6.16H7.3a1.92,1.92,0,0,0-1.92,2.12,44.84,44.84,0,0,0,40,39.91,1.92,1.92,0,0,0,2.13-1.91V72.25a22.12,22.12,0,0,1-6.18-1.62A22.35,22.35,0,0,1,34.16,65.83Z"/><circle class="cls-5" cx="50" cy="50" r="17.31"/><path class="cls-6" d="M60,50.68l-16,9.21a.78.78,0,0,1-1.17-.67V40.78a.78.78,0,0,1,1.17-.67l16,9.21A.79.79,0,0,1,60,50.68Z"/></g></g></svg>