<svg xmlns="http://www.w3.org/2000/svg" xmlns:xlink="http://www.w3.org/1999/xlink" viewBox="0 0 328.34 327.99"><defs><style>.cls-1{fill:#458206;}.cls-2{fill:url(#radial-gradient);}</style><radialGradient id="radial-gradient" cx="281.5" cy="282.22" r="157.08" gradientTransform="translate(343.32 -177.71) rotate(45) scale(1 1.31)" gradientUnits="userSpaceOnUse"><stop offset="0.26" stop-color="#fff"/><stop offset="1" stop-color="#48c94a"/></radialGradient></defs><title>green-light-on</title><g id="Layer_2" data-name="Layer 2"><g id="LuzesOn"><path class="cls-1" d="M174.41,328a174.11,174.11,0,0,1,50.14-103.68,174.34,174.34,0,0,1,103.79-50.09V15A15,15,0,0,0,311.76.08,349.54,349.54,0,0,0,.08,311.41,15,15,0,0,0,15,328Z"/><path class="cls-2" d="M15,321a7.91,7.91,0,0,1-5.94-2.64,8,8,0,0,1-2-6.22A342.77,342.77,0,0,1,312.48,7a8.19,8.19,0,0,1,.85,0,8,8,0,0,1,8,8V168.07A181.8,181.8,0,0,0,168.26,321Z"/></g></g></svg>