<svg xmlns="http://www.w3.org/2000/svg" xmlns:xlink="http://www.w3.org/1999/xlink" viewBox="0 0 328.34 327.99"><defs><style>.cls-1{fill:#470404;}.cls-2{fill:url(#radial-gradient);}</style><radialGradient id="radial-gradient" cx="-518.3" cy="-203.19" r="157.08" gradientTransform="translate(-508.36 460) rotate(135) scale(1 1.31)" gradientUnits="userSpaceOnUse"><stop offset="0.26" stop-color="#fff"/><stop offset="1" stop-color="#f50402"/></radialGradient></defs><title>red-light-on</title><g id="Layer_2" data-name="Layer 2"><g id="LuzesOn"><path class="cls-1" d="M103.79,224.31a174.27,174.27,0,0,1,37.53,55.59A173,173,0,0,1,153.94,328h159.4a15,15,0,0,0,14.92-16.58,345.92,345.92,0,0,0-25.61-99.58,348.55,348.55,0,0,0-75-111.19,349,349,0,0,0-111.31-75A346.73,346.73,0,0,0,16.58.08,15,15,0,0,0,0,15V174.22a173.23,173.23,0,0,1,48.14,12.6A174.41,174.41,0,0,1,103.79,224.31Z"/><path class="cls-2" d="M7.18,14.83a8,8,0,0,1,8.86-8A339.31,339.31,0,0,1,113.61,32a341.64,341.64,0,0,1,109,73.55A342.26,342.26,0,0,1,296.05,214.6a340.84,340.84,0,0,1,25.07,97.7,8.43,8.43,0,0,1,.05.86,8,8,0,0,1-8,8H160.09a180.31,180.31,0,0,0-12.3-43.87,181.66,181.66,0,0,0-39-57.88A181.25,181.25,0,0,0,51,180.4,180.32,180.32,0,0,0,7.18,168.09Z"/></g></g></svg>