<svg xmlns="http://www.w3.org/2000/svg" viewBox="0 0 328.34 327.99"><defs><style>.cls-1{fill:#5b0404;}.cls-2{fill:#a90500;}</style></defs><title>red-light-off</title><g id="Layer_2" data-name="Layer 2"><g id="LuzesOff"><path class="cls-1" d="M103.79,224.31a174.27,174.27,0,0,1,37.53,55.59A173,173,0,0,1,153.94,328h159.4a15,15,0,0,0,14.92-16.58,345.92,345.92,0,0,0-25.61-99.58,348.55,348.55,0,0,0-75-111.19,349,349,0,0,0-111.31-75A346.73,346.73,0,0,0,16.58.08,15,15,0,0,0,0,15V174.22a173.23,173.23,0,0,1,48.14,12.6A174.41,174.41,0,0,1,103.79,224.31Z"/><path class="cls-2" d="M160.08,321a180.1,180.1,0,0,0-12.32-43.82,181.36,181.36,0,0,0-39-57.82,181.41,181.41,0,0,0-57.88-39A180.7,180.7,0,0,0,7,168.07V15a8.06,8.06,0,0,1,8.86-8,340.36,340.36,0,0,1,97.7,25.08,341.86,341.86,0,0,1,109.09,73.47,341.71,341.71,0,0,1,73.55,109,339.78,339.78,0,0,1,25.1,97.58,8,8,0,0,1-8,8.86Z"/></g></g></svg>