<svg xmlns="http://www.w3.org/2000/svg" xmlns:xlink="http://www.w3.org/1999/xlink" viewBox="0 0 328.34 327.99"><defs><style>.cls-1{fill:#8c6606;}.cls-2{fill:url(#radial-gradient);}</style><radialGradient id="radial-gradient" cx="407.13" cy="-749.98" r="157.08" gradientTransform="translate(687.77 1027.81) rotate(-45) scale(1 1.31)" gradientUnits="userSpaceOnUse"><stop offset="0.26" stop-color="#fff"/><stop offset="1" stop-color="#f0d704"/></radialGradient></defs><title>yellow-light-on</title><g id="Layer_2" data-name="Layer 2"><g id="LuzesOn"><path class="cls-1" d="M224.55,103.68A174.19,174.19,0,0,1,187,48.09,172.68,172.68,0,0,1,174.41,0H15A15,15,0,0,0,.08,16.58,345.7,345.7,0,0,0,25.7,116.16a348.45,348.45,0,0,0,75.05,111.19,349.06,349.06,0,0,0,111.3,75,347.22,347.22,0,0,0,99.71,25.59A15,15,0,0,0,328.34,313V153.77a173.34,173.34,0,0,1-48.14-12.61A174.49,174.49,0,0,1,224.55,103.68Z"/><path class="cls-2" d="M321.17,313.16a8,8,0,0,1-8.87,8A339.48,339.48,0,0,1,214.73,296a341.49,341.49,0,0,1-109-73.55A341.93,341.93,0,0,1,32.3,113.39,340.51,340.51,0,0,1,7.22,15.68a8.06,8.06,0,0,1,8-8.86H168.25a181.34,181.34,0,0,0,12.3,43.87,181.51,181.51,0,0,0,39,57.87,181.39,181.39,0,0,0,57.82,39,180.4,180.4,0,0,0,43.82,12.31Z"/></g></g></svg>