<svg xmlns="http://www.w3.org/2000/svg" viewBox="0 0 328.34 327.99"><defs><style>.cls-1{fill:#af850e;}.cls-2{fill:#dbb312;}</style></defs><title>yellow-light-off</title><g id="Layer_2" data-name="Layer 2"><g id="LuzesOff"><path class="cls-1" d="M224.55,103.68A174.19,174.19,0,0,1,187,48.09,172.68,172.68,0,0,1,174.41,0H15A15,15,0,0,0,.08,16.58,345.7,345.7,0,0,0,25.7,116.16a348.45,348.45,0,0,0,75.05,111.19,349.06,349.06,0,0,0,111.3,75,347.22,347.22,0,0,0,99.71,25.59A15,15,0,0,0,328.34,313V153.77a173.34,173.34,0,0,1-48.14-12.61A174.49,174.49,0,0,1,224.55,103.68Z"/><path class="cls-2" d="M313.34,321a8.27,8.27,0,0,1-.86-.05,340.51,340.51,0,0,1-97.7-25.07A342.3,342.3,0,0,1,105.69,222.4a341.81,341.81,0,0,1-73.55-109A339.64,339.64,0,0,1,7,15.86a8,8,0,0,1,2-6.22A7.91,7.91,0,0,1,15,7H168.26a180.55,180.55,0,0,0,12.32,43.82,181.21,181.21,0,0,0,39,57.81,181.39,181.39,0,0,0,57.88,39,180.36,180.36,0,0,0,43.86,12.3V313a8,8,0,0,1-8,8Z"/></g></g></svg>